<?xml version="1.0" standalone="no"?>
<!DOCTYPE svg PUBLIC "-//W3C//DTD SVG 20010904//EN"
 "http://www.w3.org/TR/2001/REC-SVG-20010904/DTD/svg10.dtd">
<svg version="1.0" xmlns="http://www.w3.org/2000/svg"
 width="225.000000pt" height="225.000000pt" viewBox="0 0 225.000000 225.000000"
 preserveAspectRatio="xMidYMid meet">
<metadata>
Created by potrace 1.11, written by Peter Selinger 2001-2013
</metadata>
<g transform="translate(0.000000,225.000000) scale(0.100000,-0.100000)"
fill="#000000" stroke="none">
<path d="M1219 1973 c0 -5 -4 -50 -7 -101 -6 -83 -5 -92 11 -92 13 0 17 9 17
39 0 21 3 66 6 100 6 52 5 61 -10 61 -9 0 -16 -3 -17 -7z"/>
<path d="M1292 1968 c-7 -8 -17 -49 -22 -89 -13 -100 -12 -109 5 -109 9 0 15
10 15 26 0 14 5 44 11 68 6 23 9 60 7 81 -3 32 -5 36 -16 23z"/>
<path d="M761 1927 c-7 -9 -10 -21 -7 -26 4 -5 2 -12 -4 -16 -14 -9 -12 -25 3
-25 9 0 19 -22 26 -55 12 -51 14 -55 42 -55 34 0 35 3 12 26 -23 22 -46 88
-33 92 6 2 10 11 10 20 0 8 -3 12 -7 8 -4 -3 -12 5 -18 20 -9 24 -12 25 -24
11z"/>
<path d="M1080 1920 c-21 -21 -26 -40 -11 -40 5 0 14 7 21 15 15 18 46 20 56
4 8 -14 -14 -29 -45 -29 -26 0 -50 -25 -51 -52 0 -26 32 -38 86 -34 l48 4 -3
59 c-1 44 -7 62 -23 76 -27 22 -53 22 -78 -3z m68 -87 c-4 -23 -58 -31 -58 -9
0 13 11 18 53 25 5 0 7 -7 5 -16z"/>
<path d="M1421 1914 c-12 -14 -20 -32 -17 -41 3 -8 1 -35 -5 -59 -14 -53 -4
-68 47 -77 29 -6 32 -3 42 32 13 42 45 77 61 66 14 -8 13 -42 -3 -87 -11 -31
-11 -38 1 -42 18 -7 34 35 36 93 2 43 -4 52 -45 65 -14 4 -16 10 -8 30 7 18 5
26 -6 30 -15 6 -21 -5 -51 -97 -19 -61 -24 -69 -40 -59 -16 10 2 81 26 99 13
10 14 14 2 22 -8 5 -11 16 -6 30 9 29 -7 26 -34 -5z"/>
<path d="M846 1892 c-17 -32 -7 -99 16 -113 23 -15 74 -10 91 9 42 46 3 132
-58 132 -28 0 -37 -6 -49 -28z m71 -10 c6 -4 15 -20 19 -36 5 -22 3 -32 -10
-42 -32 -23 -66 1 -66 48 0 32 29 48 57 30z"/>
<path d="M530 1856 c0 -18 16 -29 30 -21 13 8 1 35 -16 35 -8 0 -14 -6 -14
-14z"/>
<path d="M637 1853 c-16 -8 -26 -20 -24 -26 2 -7 13 -38 23 -69 11 -32 22 -58
26 -58 14 0 19 20 9 38 -25 46 -17 102 14 102 11 0 33 -42 49 -93 8 -24 32
-16 28 9 -2 10 -13 39 -25 64 -25 51 -51 59 -100 33z"/>
<path d="M564 1814 c-16 -7 35 -134 53 -134 15 0 17 23 4 48 -5 9 -17 34 -26
55 -9 20 -17 37 -18 36 -1 0 -7 -3 -13 -5z"/>
<path d="M1625 1786 c-47 -47 -41 -96 17 -127 21 -11 71 6 66 23 -3 7 1 19 9
26 21 21 16 69 -9 86 -31 22 -55 20 -83 -8z m73 -34 c4 -23 3 -23 -22 -7 -32
21 -34 37 -3 33 14 -2 23 -11 25 -26z m-29 -31 l24 -19 -22 -11 c-17 -10 -24
-9 -36 3 -18 18 -20 46 -2 46 6 0 23 -9 36 -19z"/>
<path d="M430 1743 c0 -5 -14 -16 -30 -25 -21 -12 -30 -25 -30 -43 0 -33 18
-67 31 -60 5 4 8 1 7 -7 -4 -19 56 -22 75 -4 21 21 27 20 27 -3 0 -20 -26 -34
-51 -29 -9 2 -13 -5 -12 -19 2 -13 -2 -23 -7 -23 -12 0 -54 -45 -92 -98 -30
-44 -30 -44 -42 -20 -14 28 -79 48 -104 31 -9 -5 -21 -24 -26 -42 -11 -39 6
-76 43 -90 22 -8 23 -10 6 -11 -11 -1 -23 -2 -27 -1 -11 1 -10 -7 5 -57 14
-46 27 -46 27 0 0 38 30 35 44 -3 19 -55 -16 -99 -78 -99 -44 0 -75 78 -39 98
10 6 14 16 10 27 -16 41 -63 -25 -52 -73 3 -15 16 -40 29 -55 37 -43 119 -35
155 16 14 19 14 19 27 -4 19 -34 17 -44 -10 -57 -13 -6 -26 -23 -30 -39 -4
-15 -13 -50 -21 -78 -8 -27 -33 -115 -56 -195 -37 -133 -71 -245 -120 -392
-11 -32 -19 -64 -19 -73 0 -13 53 -15 455 -15 422 0 480 -3 445 -25 -29 -18
17 -25 165 -25 148 0 194 7 165 25 -35 22 23 25 450 25 361 0 460 3 460 13 0
6 -7 32 -15 57 -25 75 -139 426 -185 568 -23 73 -40 135 -38 137 2 3 28 -4 56
-15 29 -11 59 -20 67 -20 25 0 17 27 -10 34 -21 5 -24 10 -15 26 16 30 12 55
-13 78 -25 24 -76 29 -95 10 -9 -9 -12 -7 -12 10 0 23 1 23 100 16 89 -6 100
-5 100 10 0 13 -11 16 -55 17 -30 1 -59 3 -65 4 -5 1 -23 3 -40 4 -25 1 -30 5
-30 26 0 23 4 25 45 25 25 0 48 1 53 3 4 1 8 -8 10 -20 2 -13 10 -23 18 -23
12 0 14 9 11 38 l-3 37 -72 -3 c-40 -1 -72 2 -72 6 0 4 17 9 37 9 28 1 43 8
60 30 13 15 23 33 23 39 0 24 -27 65 -47 70 -31 8 -92 -24 -99 -53 l-6 -24
-16 23 c-39 56 -140 136 -222 175 -63 31 -243 84 -325 97 -196 31 -459 16
-617 -35 -34 -10 -65 -19 -69 -19 -5 0 -32 -11 -60 -25 -50 -24 -69 -25 -69
-4 0 10 -35 60 -74 106 -19 23 -36 30 -36 16z m38 -70 c23 -41 -18 -71 -52
-37 -19 18 -21 61 -3 67 16 6 44 -9 55 -30z m532 7 c0 -5 10 -10 23 -10 18 0
19 2 7 10 -11 7 0 10 37 10 l51 0 4 -78 c2 -48 -2 -88 -9 -102 -7 -14 -8 -27
-4 -30 5 -3 11 -14 14 -25 4 -18 5 -18 6 3 0 12 6 22 12 22 6 0 8 7 5 16 -3 9
-2 12 5 9 13 -8 59 21 59 38 0 8 -4 7 -10 -3 -8 -13 -10 -12 -10 3 0 9 -5 17
-11 17 -6 0 -8 -9 -4 -20 4 -11 2 -20 -4 -20 -6 0 -11 5 -11 11 0 5 -4 8 -9 5
-14 -9 -21 20 -21 90 0 50 3 64 15 64 8 0 15 -4 15 -10 0 -5 5 -10 11 -10 5 0
7 5 4 10 -3 6 1 10 9 10 8 0 18 -4 21 -10 3 -5 15 -10 26 -10 10 0 19 5 19 10
0 6 7 10 15 10 8 0 15 -4 15 -9 0 -5 30 -13 68 -16 97 -11 104 -12 135 -20 15
-4 27 -11 27 -16 0 -5 6 -6 13 -4 16 6 93 -21 89 -32 -3 -9 -18 -9 -57 1 -42
11 -28 -8 20 -25 24 -9 43 -12 42 -6 -1 5 13 10 31 11 17 0 32 -2 32 -6 0 -5
7 -8 15 -8 8 0 15 -5 15 -11 0 -5 4 -8 8 -5 13 8 82 -42 129 -93 115 -123 112
-250 -7 -371 -37 -38 -53 -47 -70 -43 -19 5 -21 3 -16 -14 5 -16 -2 -22 -46
-37 -29 -11 -59 -24 -67 -30 -26 -20 -116 -55 -119 -45 -2 5 -8 9 -13 9 -6 0
-7 -5 -4 -10 11 -17 -25 -23 -43 -8 -19 17 -92 31 -92 18 0 -4 17 -13 38 -18
l37 -10 -52 0 c-35 1 -57 -4 -68 -15 -9 -10 -34 -18 -58 -19 -23 0 -61 -2 -83
-4 -42 -3 -42 -2 -42 32 0 18 3 32 7 29 4 -2 8 2 8 9 0 7 -6 13 -14 13 -7 0
-13 -6 -13 -13 0 -8 -6 -11 -15 -8 -8 4 -15 2 -15 -4 0 -5 7 -12 15 -16 8 -3
15 -14 15 -25 0 -19 -6 -20 -72 -17 -40 2 -81 6 -90 10 -9 4 -21 5 -27 2 -5
-4 -13 -1 -16 5 -4 5 -13 8 -21 5 -37 -14 -287 57 -322 91 -8 7 -18 11 -23 8
-23 -15 -189 129 -204 176 -4 13 -12 27 -18 30 -18 12 -20 104 -2 164 13 46
28 69 75 116 59 60 74 68 84 47 3 -7 3 -3 0 10 -6 24 13 31 34 10 9 -9 16 -8
30 5 10 9 24 17 31 17 7 0 9 4 6 10 -3 5 0 7 8 4 8 -3 14 1 14 10 0 8 -6 12
-16 9 -11 -4 -13 -3 -6 5 14 15 131 43 152 36 14 -5 15 -4 4 4 -16 12 29 28
97 36 23 3 47 8 54 12 8 5 9 1 4 -12 -6 -15 -5 -17 5 -6 7 6 29 12 49 12 26 0
31 3 20 10 -13 8 -12 10 3 10 9 0 17 -4 17 -10z m-455 -119 c3 -5 1 -12 -5
-16 -5 -3 -10 1 -10 9 0 18 6 21 15 7z m1483 -113 c29 -29 2 -68 -47 -68 -28
0 -37 37 -14 60 21 22 44 25 61 8z m-1740 -48 c10 0 -6 -45 -19 -53 -23 -15
-67 0 -75 25 -10 31 18 49 59 37 18 -5 33 -9 35 -9z m6 -95 c-4 -8 -10 -15
-15 -15 -5 0 -9 7 -9 15 0 8 7 15 15 15 9 0 12 -6 9 -15z m1739 -149 c20 -16
22 -39 4 -54 -18 -15 -77 15 -77 38 0 30 42 39 73 16z m-61 -204 c16 -47 27
-91 24 -99 -3 -7 -1 -13 4 -13 5 0 12 -16 16 -35 3 -19 10 -38 15 -41 5 -3 7
-9 4 -14 -3 -5 -1 -17 4 -27 5 -10 16 -36 24 -58 8 -22 24 -62 35 -90 37 -95
74 -216 67 -223 -3 -4 -11 1 -16 11 -6 9 -15 17 -21 17 -6 0 -30 21 -53 46
-37 40 -45 57 -59 127 -10 45 -19 89 -21 97 -2 8 -9 42 -15 75 -7 33 -16 69
-20 80 -16 37 -68 270 -63 279 11 17 46 -45 75 -132z m-1622 -108 c-22 -98
-46 -191 -51 -206 -14 -35 9 -76 64 -112 36 -23 51 -26 125 -26 46 0 110 6
141 14 150 36 170 39 203 29 l33 -11 -35 -1 c-39 -2 -176 -31 -260 -55 -82
-24 -183 -25 -257 -1 -35 11 -63 24 -63 30 1 16 25 117 74 312 25 100 46 192
46 206 0 13 3 27 8 31 18 19 10 -44 -28 -210z m1573 29 c42 -172 60 -254 58
-268 0 -2 5 -22 12 -42 7 -21 12 -51 12 -68 0 -28 -3 -30 -40 -33 -40 -4 -92
5 -220 38 -269 70 -435 62 -557 -25 l-47 -34 4 177 c3 97 5 182 5 188 0 7 31
14 78 18 258 23 515 113 606 215 11 11 24 21 31 21 7 0 31 -77 58 -187z
m-1592 138 c-6 -11 -8 -27 -5 -35 4 -11 1 -16 -10 -16 -9 0 -16 -7 -16 -17 0
-9 -3 -14 -6 -10 -4 3 3 27 15 52 11 24 21 50 22 57 0 10 2 10 5 1 3 -7 1 -21
-5 -32z m184 -46 c62 -40 239 -101 342 -119 43 -8 122 -17 176 -21 l98 -7 -5
-177 c-2 -97 -7 -175 -10 -174 -4 2 -34 17 -68 34 -34 17 -103 40 -156 50
-152 31 -187 56 -214 157 -11 38 -15 42 -43 42 -47 0 -106 20 -148 49 -28 20
-41 38 -52 76 -12 42 -20 108 -16 138 1 9 25 -3 96 -48z m-86 -216 c41 -87
120 -143 251 -178 41 -11 63 -20 48 -20 -15 -1 -53 -8 -85 -16 -76 -20 -215
-20 -257 0 -47 23 -78 68 -67 97 6 13 25 86 43 163 l32 140 7 -70 c4 -38 16
-91 28 -116z m-122 109 c-3 -7 -5 -2 -5 12 0 14 2 19 5 13 2 -7 2 -19 0 -25z
m-17 -4 c0 -8 -4 -12 -10 -9 -5 3 -10 10 -10 16 0 5 5 9 10 9 6 0 10 -7 10
-16z m-30 -59 c-14 -36 -22 -28 -14 14 4 19 10 29 16 23 5 -5 4 -20 -2 -37z
m259 -47 c14 -6 48 -13 74 -17 46 -6 50 -8 62 -45 8 -22 23 -52 35 -68 l21
-28 -23 0 c-32 0 -120 43 -169 82 -34 27 -89 110 -89 134 0 3 14 -6 32 -21 18
-15 43 -32 57 -37z m-289 -82 c0 -8 -4 -18 -10 -21 -5 -3 -10 3 -10 14 0 12 5
21 10 21 6 0 10 -6 10 -14z m7 -73 c-3 -10 -5 -4 -5 12 0 17 2 24 5 18 2 -7 2
-21 0 -30z m-7 -38 c0 -5 -4 -3 -10 5 -15 24 -24 2 -11 -27 7 -16 9 -25 5 -20
-12 12 -44 -24 -44 -50 0 -12 -4 -23 -10 -23 -14 0 -12 42 4 63 7 9 19 17 27
17 10 0 10 3 1 12 -16 16 -15 23 4 43 14 13 19 14 25 3 5 -7 9 -17 9 -23z
m410 -89 c0 -2 -7 -7 -16 -10 -8 -3 -12 -2 -9 4 6 10 25 14 25 6z"/>
<path d="M1078 1673 c7 -3 16 -2 19 1 4 3 -2 6 -13 5 -11 0 -14 -3 -6 -6z"/>
<path d="M674 1585 c-18 -13 -18 -14 4 -8 12 3 25 9 28 14 8 14 -10 11 -32 -6z"/>
<path d="M895 1590 c-3 -5 -1 -10 4 -10 6 0 11 5 11 10 0 6 -2 10 -4 10 -3 0
-8 -4 -11 -10z"/>
<path d="M1030 1590 c-13 -8 -12 -10 3 -10 9 0 17 5 17 10 0 12 -1 12 -20 0z"/>
<path d="M1260 1591 c0 -11 31 -24 39 -16 3 3 -1 10 -9 15 -19 12 -30 12 -30
1z"/>
<path d="M1450 1592 c0 -5 11 -12 25 -14 14 -3 25 -1 25 3 0 5 -4 9 -9 9 -5 0
-16 3 -25 6 -9 3 -16 2 -16 -4z"/>
<path d="M754 1574 c-18 -14 -18 -15 6 -8 31 8 50 24 29 24 -8 0 -24 -7 -35
-16z"/>
<path d="M1228 1564 c2 -13 8 -21 13 -18 14 8 11 31 -4 37 -10 4 -13 -2 -9
-19z"/>
<path d="M1336 1581 c-4 -5 3 -7 14 -4 23 6 26 13 6 13 -8 0 -17 -4 -20 -9z"/>
<path d="M1392 1579 c-15 -5 -20 -13 -16 -21 6 -9 9 -9 12 0 2 7 10 12 17 12
8 0 17 5 20 10 7 12 -2 12 -33 -1z"/>
<path d="M870 1571 c0 -7 -6 -11 -15 -8 -8 4 -17 1 -21 -6 -4 -7 -3 -9 1 -4 5
4 15 -5 22 -20 10 -23 12 -24 7 -4 -4 15 -2 21 4 17 15 -9 22 7 11 24 -7 12
-9 12 -9 1z"/>
<path d="M622 1558 c-14 -14 -16 -48 -3 -48 6 0 3 -12 -5 -27 -13 -27 -13 -28
12 -31 l25 -3 -22 -20 c-12 -10 -17 -19 -11 -19 7 0 12 -5 12 -11 0 -6 -7 -9
-15 -6 -8 4 -17 2 -20 -3 -4 -6 3 -10 14 -10 17 0 19 -4 10 -32 -5 -17 -7 -34
-4 -36 3 -3 8 9 11 27 8 38 20 47 41 29 12 -9 15 -9 9 0 -9 14 -1 15 42 3 18
-6 30 -6 27 -1 -3 5 5 11 17 13 13 2 4 5 -19 6 -33 1 -43 5 -48 22 -4 12 -13
18 -20 15 -9 -3 -12 0 -8 10 4 10 9 12 18 4 6 -5 15 -7 19 -3 4 4 25 8 46 9
30 1 41 -3 45 -17 5 -15 9 -16 19 -6 8 6 11 18 9 24 -3 8 4 13 18 13 21 1 22
2 6 11 -10 6 -14 15 -10 22 4 7 0 6 -10 -2 -9 -7 -18 -23 -18 -35 -1 -15 -2
-17 -6 -4 -5 18 -33 33 -33 18 0 -6 -9 -6 -25 0 -14 5 -32 7 -40 4 -8 -4 -15
-2 -15 2 1 21 18 34 48 36 18 1 32 7 32 14 0 6 -14 10 -32 9 -18 -2 -38 2 -45
7 -7 5 -14 5 -18 -2 -3 -5 -14 -10 -23 -10 -16 1 -15 2 1 14 16 12 16 14 1 20
-20 8 -18 8 -32 -6z m55 -54 c-3 -3 -12 -4 -19 -1 -8 3 -5 6 6 6 11 1 17 -2
13 -5z"/>
<path d="M1514 1536 c-1 -13 7 -26 21 -32 20 -10 22 -8 22 15 0 14 -2 20 -4
13 -3 -6 -9 -10 -13 -7 -5 3 -7 11 -4 19 3 7 -1 13 -8 13 -7 0 -14 -10 -14
-21z"/>
<path d="M943 1543 c-31 -6 -29 -23 2 -23 16 0 25 6 25 15 0 8 -1 14 -2 14 -2
-1 -13 -4 -25 -6z"/>
<path d="M790 1530 c0 -5 7 -10 16 -10 8 0 12 5 9 10 -3 6 -10 10 -16 10 -5 0
-9 -4 -9 -10z"/>
<path d="M1050 1515 c-15 -18 -23 -75 -11 -75 4 0 15 6 24 13 12 9 14 20 9 46
-7 31 -8 32 -22 16z m15 -35 c3 -5 1 -10 -4 -10 -6 0 -11 5 -11 10 0 6 2 10 4
10 3 0 8 -4 11 -10z"/>
<path d="M1235 1520 c3 -5 8 -10 11 -10 2 0 4 5 4 10 0 6 -5 10 -11 10 -5 0
-7 -4 -4 -10z"/>
<path d="M1582 1518 c6 -18 28 -21 28 -4 0 9 -7 16 -16 16 -9 0 -14 -5 -12
-12z"/>
<path d="M1570 1454 c0 -22 -2 -25 -15 -14 -10 9 -15 9 -15 1 0 -6 5 -12 10
-12 6 -1 14 -2 18 -3 5 0 21 -14 35 -31 25 -28 26 -29 27 -8 0 13 -8 24 -20
28 -19 6 -24 16 -21 42 1 6 -3 14 -9 18 -6 4 -10 -5 -10 -21z"/>
<path d="M1600 1452 c0 -10 22 -32 32 -32 5 0 3 9 -4 20 -13 20 -28 27 -28 12z"/>
<path d="M598 1433 c7 -3 16 -2 19 1 4 3 -2 6 -13 5 -11 0 -14 -3 -6 -6z"/>
<path d="M990 1410 c0 -17 -4 -30 -10 -30 -5 0 -10 -7 -10 -16 0 -8 -5 -12
-11 -9 -10 7 -49 -30 -49 -48 0 -5 7 -6 16 -3 14 5 15 4 4 -9 -7 -8 -16 -12
-21 -9 -5 3 -9 1 -9 -5 0 -5 5 -13 10 -16 6 -4 8 -11 4 -16 -3 -6 18 -9 53 -8
88 1 88 2 91 -54 5 -88 46 -138 96 -116 16 8 26 23 31 45 3 19 10 34 15 34 5
0 12 17 16 38 4 20 15 43 26 50 25 18 23 29 -9 44 -15 7 -33 24 -40 38 -7 14
-13 20 -13 15 0 -6 -9 -11 -19 -11 -11 0 -17 4 -15 8 3 4 12 8 20 8 8 0 19 12
24 26 13 33 13 34 -6 34 -11 0 -14 -5 -10 -16 5 -12 2 -15 -10 -10 -12 5 -15
2 -10 -9 3 -10 2 -13 -5 -10 -5 4 -7 14 -4 24 3 9 -2 26 -10 37 -9 12 -14 14
-15 6 0 -7 -5 -10 -10 -7 -6 3 -17 -1 -26 -9 -9 -10 -26 -14 -42 -11 -15 2
-30 -1 -34 -8 -5 -8 -8 -4 -8 10 0 12 5 23 12 25 7 3 6 7 -5 11 -14 5 -17 1
-17 -23z m130 -25 c-7 -8 -16 -15 -21 -15 -5 0 -6 7 -3 15 4 8 13 15 21 15 13
0 13 -3 3 -15z m-33 -47 c-3 -8 -6 -5 -6 6 -1 11 2 17 5 13 3 -3 4 -12 1 -19z
m20 -10 c-3 -8 -6 -5 -6 6 -1 11 2 17 5 13 3 -3 4 -12 1 -19z m-144 -9 c4 -16
3 -18 -9 -8 -7 6 -11 15 -8 20 8 13 11 11 17 -12z m226 -42 c0 -21 -1 -21 -9
-2 -12 28 -12 37 0 30 6 -3 10 -16 9 -28z m18 -9 c-3 -8 -6 -5 -6 6 -1 11 2
17 5 13 3 -3 4 -12 1 -19z m-20 -48 c-7 -17 -13 -26 -15 -21 -3 10 15 51 22
51 3 0 -1 -14 -7 -30z m23 -20 c0 -5 -4 -10 -10 -10 -5 0 -10 5 -10 10 0 6 5
10 10 10 6 0 10 -4 10 -10z m-51 -54 c9 -10 8 -15 -4 -20 -10 -4 -15 1 -15 14
0 24 4 25 19 6z m-69 -6 c0 -5 -2 -10 -4 -10 -3 0 -8 5 -11 10 -3 6 -1 10 4
10 6 0 11 -4 11 -10z"/>
<path d="M415 1420 c-3 -5 -1 -10 4 -10 6 0 11 5 11 10 0 6 -2 10 -4 10 -3 0
-8 -4 -11 -10z"/>
<path d="M771 1414 c0 -11 3 -14 6 -6 3 7 2 16 -1 19 -3 4 -6 -2 -5 -13z"/>
<path d="M396 1385 c-9 -26 -7 -32 5 -12 6 10 9 21 6 23 -2 3 -7 -2 -11 -11z"/>
<path d="M1577 1377 c3 -15 9 -27 14 -27 13 0 11 13 -5 35 -13 18 -14 18 -9
-8z"/>
<path d="M1253 1373 c-18 -7 -16 -23 2 -23 8 0 15 7 15 15 0 8 -1 15 -2 14 -2
0 -9 -3 -15 -6z"/>
<path d="M1631 1337 c0 -10 -5 -15 -11 -12 -5 3 -10 2 -10 -4 0 -5 5 -13 10
-16 14 -9 12 -25 -3 -25 -14 0 -47 -31 -47 -43 0 -4 9 -7 19 -7 11 0 23 -5 26
-10 4 -6 11 -8 16 -5 11 7 12 26 2 23 -5 -2 -9 0 -10 5 -8 21 0 18 32 -13 19
-19 35 -42 35 -52 0 -19 -15 -24 -25 -8 -13 21 -34 8 -55 -34 -21 -45 -49 -54
-51 -17 0 9 -3 11 -5 4 -10 -23 15 -54 39 -48 15 4 32 -3 52 -20 24 -22 31
-24 40 -12 5 8 20 17 33 21 15 5 22 15 22 32 0 28 -6 30 -26 9 -11 -10 -11
-15 -3 -15 6 0 0 -9 -15 -21 -25 -20 -27 -20 -48 -2 -26 20 -33 55 -18 83 9
16 14 17 42 7 18 -7 37 -16 41 -22 5 -6 6 -1 2 10 -4 11 -8 25 -9 30 -7 28
-27 65 -34 65 -8 0 -26 48 -36 95 -3 17 -4 17 -5 2z"/>
<path d="M1530 1331 c0 -6 4 -13 10 -16 6 -3 7 1 4 9 -7 18 -14 21 -14 7z"/>
<path d="M735 1321 c-2 -5 12 -11 32 -14 36 -6 52 -3 41 9 -10 9 -67 13 -73 5z"/>
<path d="M1290 1320 c-12 -8 -10 -10 8 -10 13 0 20 4 17 10 -7 12 -6 12 -25 0z"/>
<path d="M1370 1327 c0 -4 9 -17 20 -29 11 -12 20 -28 20 -35 0 -7 5 -13 10
-13 6 0 10 3 10 8 -1 10 -59 79 -60 69z"/>
<path d="M640 1316 c0 -2 7 -6 15 -10 8 -3 15 -1 15 4 0 6 -7 10 -15 10 -8 0
-15 -2 -15 -4z"/>
<path d="M1220 1310 c8 -5 20 -10 25 -10 6 0 3 5 -5 10 -8 5 -19 10 -25 10 -5
0 -3 -5 5 -10z"/>
<path d="M1490 1311 c0 -5 7 -11 15 -15 17 -6 21 -36 5 -36 -12 0 21 -49 33
-50 4 0 7 11 7 25 0 14 -5 25 -11 25 -6 0 -9 7 -5 15 3 8 -2 21 -10 30 -17 17
-34 20 -34 6z"/>
<path d="M760 1270 c-21 -7 -21 -8 -5 -9 11 0 27 4 35 9 18 11 5 11 -30 0z"/>
<path d="M823 1273 c9 -2 23 -2 30 0 6 3 -1 5 -18 5 -16 0 -22 -2 -12 -5z"/>
<path d="M875 1250 c3 -5 8 -10 11 -10 2 0 4 5 4 10 0 6 -5 10 -11 10 -5 0 -7
-4 -4 -10z"/>
<path d="M970 1210 c20 -13 33 -13 25 0 -3 6 -14 10 -23 10 -15 0 -15 -2 -2
-10z"/>
<path d="M1700 1213 c0 -5 9 -16 20 -26 16 -14 20 -14 20 -2 0 8 -9 19 -20 25
-11 6 -20 7 -20 3z"/>
<path d="M983 1168 c-2 -16 1 -17 13 -8 17 15 17 17 1 23 -8 3 -14 -3 -14 -15z"/>
<path d="M1256 1164 c-3 -9 -2 -23 4 -32 7 -14 9 -10 10 16 0 35 -5 41 -14 16z"/>
<path d="M790 1151 c0 -6 4 -12 8 -15 5 -3 9 -19 10 -37 1 -38 12 -53 12 -16
0 14 2 31 5 39 3 7 -4 19 -15 26 -11 7 -20 8 -20 3z"/>
<path d="M1227 1146 c-4 -9 -2 -16 3 -16 5 0 11 -8 13 -17 4 -15 5 -15 6 2 0
11 -3 26 -8 33 -7 11 -9 11 -14 -2z"/>
<path d="M938 1116 c-10 -7 -18 -18 -18 -24 0 -6 -6 -13 -12 -15 -8 -3 -6 -6
5 -6 9 -1 17 5 17 12 0 7 12 20 28 29 15 10 20 17 12 17 -8 0 -23 -6 -32 -13z"/>
<path d="M866 1055 c-3 -8 -15 -15 -27 -15 -12 0 -20 -3 -16 -6 10 -11 54 5
61 21 3 8 1 15 -3 15 -5 0 -11 -7 -15 -15z"/>
<path d="M578 1033 c7 -3 16 -2 19 1 4 3 -2 6 -13 5 -11 0 -14 -3 -6 -6z"/>
<path d="M790 1029 c0 -5 5 -7 10 -4 6 3 10 8 10 11 0 2 -4 4 -10 4 -5 0 -10
-5 -10 -11z"/>
<path d="M1120 1030 c0 -5 5 -10 10 -10 6 0 10 5 10 10 0 6 -4 10 -10 10 -5 0
-10 -4 -10 -10z"/>
<path d="M806 995 c4 -8 11 -15 16 -15 6 0 5 6 -2 15 -7 8 -14 15 -16 15 -2 0
-1 -7 2 -15z"/>
<path d="M640 970 c0 -5 5 -10 11 -10 5 0 7 5 4 10 -3 6 -8 10 -11 10 -2 0 -4
-4 -4 -10z"/>
<path d="M878 963 c7 -3 16 -2 19 1 4 3 -2 6 -13 5 -11 0 -14 -3 -6 -6z"/>
<path d="M1206 941 c-3 -5 2 -15 11 -22 12 -10 14 -10 9 -1 -4 7 -2 12 4 12 6
0 8 5 5 10 -8 12 -22 13 -29 1z"/>
<path d="M1255 930 c3 -5 8 -10 11 -10 2 0 4 5 4 10 0 6 -5 10 -11 10 -5 0 -7
-4 -4 -10z"/>
<path d="M1317 926 c4 -5 -2 -15 -12 -22 -10 -8 -16 -17 -12 -20 7 -7 54 26
61 42 3 7 -5 11 -19 10 -13 0 -21 -5 -18 -10z"/>
<path d="M1044 917 c3 -7 9 -20 12 -29 10 -27 21 -21 21 10 0 20 -6 28 -19 29
-12 1 -17 -3 -14 -10z"/>
<path d="M937 909 c7 -7 15 -10 18 -7 3 3 -2 9 -12 12 -14 6 -15 5 -6 -5z"/>
<path d="M1185 910 c-3 -5 1 -10 10 -10 9 0 13 5 10 10 -3 6 -8 10 -10 10 -2
0 -7 -4 -10 -10z"/>
<path d="M1179 881 c12 -8 51 -4 51 5 0 2 -15 4 -32 4 -23 0 -29 -3 -19 -9z"/>
<path d="M1260 879 c0 -5 5 -7 10 -4 6 3 10 8 10 11 0 2 -4 4 -10 4 -5 0 -10
-5 -10 -11z"/>
<path d="M1856 1709 c-15 -22 -25 -47 -22 -55 3 -8 2 -12 -4 -9 -10 6 -40 -45
-40 -70 0 -22 10 -19 84 19 36 19 66 32 66 29 0 -3 -16 -31 -36 -64 -55 -89
-43 -100 56 -48 94 50 106 61 85 79 -10 9 -15 9 -15 1 0 -6 -5 -11 -11 -11 -6
0 -31 -14 -57 -32 l-46 -32 33 58 c22 40 31 66 27 82 -6 23 -26 34 -26 15 0
-5 -15 -14 -32 -22 -18 -7 -46 -22 -63 -33 l-30 -21 29 50 c16 28 35 58 43 67
14 16 11 38 -6 38 -5 0 -21 -18 -35 -41z m105 -82 c-10 -9 -11 -8 -5 6 3 10 9
15 12 12 3 -3 0 -11 -7 -18z"/>
<path d="M298 1633 c-9 -2 -20 -14 -24 -26 -4 -12 -14 -27 -23 -34 -14 -11
-14 -13 4 -26 11 -8 36 -29 55 -46 38 -33 46 -36 55 -21 8 13 -14 42 -26 34
-5 -3 -9 1 -9 8 0 7 -9 19 -20 26 -24 15 -25 31 -3 47 16 12 29 5 79 -42 17
-17 34 -16 34 0 0 16 -79 88 -95 86 -5 -1 -18 -3 -27 -6z"/>
<path d="M176 1543 c-12 -12 -6 -33 9 -33 8 0 15 6 15 14 0 17 -14 28 -24 19z"/>
<path d="M210 1507 c0 -14 119 -81 128 -73 12 13 -12 37 -61 60 -62 30 -67 31
-67 13z"/>
</g>
</svg>
